<svg xmlns="http://www.w3.org/2000/svg" viewBox="0 0 1920 1080" width="1920" height="1080">
  <!-- White background -->
  <rect width="1920" height="1080" fill="#FFFFFF"/>

  <!-- Left vertical accent stripe -->
  <rect x="0" y="0" width="8" height="1080" fill="#FF6B35"/>

  <!-- Top accent bar -->
  <rect x="0" y="0" width="1920" height="6" fill="#FF6B35"/>

  <!-- Bottom accent bar -->
  <rect x="0" y="1074" width="1920" height="6" fill="#FF6B35"/>

  <!-- Shield logo (left side) -->
  <polygon points="160,200 280,250 280,420 160,510 40,420 40,250" fill="#FF6B35"/>
  <polygon points="160,222 262,267 262,412 160,493 58,412 58,267" fill="#FFFFFF"/>
  <polygon points="160,238 250,280 250,406 160,480 70,406 70,280" fill="#FF6B35"/>
  <text x="160" y="385" font-family="-apple-system, 'Helvetica Neue', Arial, sans-serif" font-weight="900" font-size="120" fill="#FFFFFF" text-anchor="middle" dominant-baseline="middle">S</text>

  <!-- Main title -->
  <text x="340" y="340" font-family="-apple-system, 'Helvetica Neue', Arial, sans-serif" font-weight="900" font-size="120" fill="#0A0A0A" dominant-baseline="middle">SOUF AI</text>

  <!-- Tagline -->
  <text x="340" y="430" font-family="-apple-system, 'Helvetica Neue', Arial, sans-serif" font-weight="400" font-size="28" fill="#5A5A5A">Secure Output Firewall — Deep Packet Inspection for LLM Agents</text>

  <!-- Divider line -->
  <line x1="340" y1="470" x2="1600" y2="470" stroke="#FF6B35" stroke-width="2"/>

  <!-- Key metrics row -->
  <!-- Metric 1: F1 -->
  <rect x="340" y="510" width="240" height="110" rx="4" fill="#0A0A0A"/>
  <text x="460" y="558" font-family="-apple-system, 'Helvetica Neue', Arial, sans-serif" font-weight="900" font-size="42" fill="#FF6B35" text-anchor="middle">F1=1.000</text>
  <text x="460" y="600" font-family="-apple-system, 'Helvetica Neue', Arial, sans-serif" font-weight="400" font-size="16" fill="#FFFFFF" text-anchor="middle">5 benchmarks · 231 prompts</text>

  <!-- Metric 2: Latency -->
  <rect x="600" y="510" width="240" height="110" rx="4" fill="#0A0A0A"/>
  <text x="720" y="558" font-family="-apple-system, 'Helvetica Neue', Arial, sans-serif" font-weight="900" font-size="42" fill="#FF6B35" text-anchor="middle">0.051ms</text>
  <text x="720" y="600" font-family="-apple-system, 'Helvetica Neue', Arial, sans-serif" font-weight="400" font-size="16" fill="#FFFFFF" text-anchor="middle">P50 DPI latency</text>

  <!-- Metric 3: Throughput -->
  <rect x="860" y="510" width="260" height="110" rx="4" fill="#0A0A0A"/>
  <text x="990" y="558" font-family="-apple-system, 'Helvetica Neue', Arial, sans-serif" font-weight="900" font-size="38" fill="#FF6B35" text-anchor="middle">17,553 rps</text>
  <text x="990" y="600" font-family="-apple-system, 'Helvetica Neue', Arial, sans-serif" font-weight="400" font-size="16" fill="#FFFFFF" text-anchor="middle">throughput</text>

  <!-- Metric 4: Rules -->
  <rect x="1140" y="510" width="240" height="110" rx="4" fill="#0A0A0A"/>
  <text x="1260" y="558" font-family="-apple-system, 'Helvetica Neue', Arial, sans-serif" font-weight="900" font-size="42" fill="#FF6B35" text-anchor="middle">337 rules</text>
  <text x="1260" y="600" font-family="-apple-system, 'Helvetica Neue', Arial, sans-serif" font-weight="400" font-size="16" fill="#FFFFFF" text-anchor="middle">16 PatternSets</text>

  <!-- Metric 5: 0 FP -->
  <rect x="1400" y="510" width="200" height="110" rx="4" fill="#FF6B35"/>
  <text x="1500" y="558" font-family="-apple-system, 'Helvetica Neue', Arial, sans-serif" font-weight="900" font-size="42" fill="#FFFFFF" text-anchor="middle">0 FP</text>
  <text x="1500" y="600" font-family="-apple-system, 'Helvetica Neue', Arial, sans-serif" font-weight="400" font-size="16" fill="#FFFFFF" text-anchor="middle">zero false positives</text>

  <!-- Benchmark labels row -->
  <text x="340" y="665" font-family="-apple-system, 'Helvetica Neue', Arial, sans-serif" font-weight="700" font-size="16" fill="#5A5A5A">BENCHMARKS PASSED:</text>

  <rect x="340" y="680" width="160" height="28" rx="14" fill="#FF6B35"/>
  <text x="420" y="699" font-family="-apple-system, 'Helvetica Neue', Arial, sans-serif" font-weight="700" font-size="13" fill="#FFFFFF" text-anchor="middle">48/48 Attacks</text>

  <rect x="516" y="680" width="160" height="28" rx="14" fill="#0A0A0A"/>
  <text x="596" y="699" font-family="-apple-system, 'Helvetica Neue', Arial, sans-serif" font-weight="700" font-size="13" fill="#FFFFFF" text-anchor="middle">100/90 OOD</text>

  <rect x="692" y="680" width="160" height="28" rx="14" fill="#0A0A0A"/>
  <text x="772" y="699" font-family="-apple-system, 'Helvetica Neue', Arial, sans-serif" font-weight="700" font-size="13" fill="#FFFFFF" text-anchor="middle">16/16 HIPAA</text>

  <rect x="868" y="680" width="160" height="28" rx="14" fill="#0A0A0A"/>
  <text x="948" y="699" font-family="-apple-system, 'Helvetica Neue', Arial, sans-serif" font-weight="700" font-size="13" fill="#FFFFFF" text-anchor="middle">16/16 PCI-DSS</text>

  <rect x="1044" y="680" width="180" height="28" rx="14" fill="#0A0A0A"/>
  <text x="1134" y="699" font-family="-apple-system, 'Helvetica Neue', Arial, sans-serif" font-weight="700" font-size="13" fill="#FFFFFF" text-anchor="middle">18/18 Encoding</text>

  <!-- Wilson CI -->
  <text x="340" y="750" font-family="-apple-system, 'Helvetica Neue', Arial, sans-serif" font-weight="400" font-size="15" fill="#5A5A5A">Wilson 95% CI — DENY: [0.980, 1.000]   ALLOW: [0.918, 1.000]   Ed25519-signed audit trail · SHA-256 Merkle chain</text>

  <!-- Partner logos (text boxes) -->
  <text x="340" y="820" font-family="-apple-system, 'Helvetica Neue', Arial, sans-serif" font-weight="700" font-size="14" fill="#5A5A5A" letter-spacing="2">PARTNERS</text>

  <rect x="340" y="836" width="130" height="34" rx="4" stroke="#0A0A0A" stroke-width="1.5" fill="none"/>
  <text x="405" y="858" font-family="-apple-system, 'Helvetica Neue', Arial, sans-serif" font-weight="700" font-size="15" fill="#0A0A0A" text-anchor="middle">Veea</text>

  <rect x="488" y="836" width="130" height="34" rx="4" stroke="#0A0A0A" stroke-width="1.5" fill="none"/>
  <text x="553" y="858" font-family="-apple-system, 'Helvetica Neue', Arial, sans-serif" font-weight="700" font-size="15" fill="#0A0A0A" text-anchor="middle">lablab.ai</text>

  <rect x="636" y="836" width="200" height="34" rx="4" stroke="#0A0A0A" stroke-width="1.5" fill="none"/>
  <text x="736" y="858" font-family="-apple-system, 'Helvetica Neue', Arial, sans-serif" font-weight="700" font-size="15" fill="#0A0A0A" text-anchor="middle">Google DeepMind</text>

  <rect x="854" y="836" width="200" height="34" rx="4" stroke="#0A0A0A" stroke-width="1.5" fill="none"/>
  <text x="954" y="858" font-family="-apple-system, 'Helvetica Neue', Arial, sans-serif" font-weight="700" font-size="15" fill="#0A0A0A" text-anchor="middle">Lobster Trap OSS</text>

  <!-- Event info bottom right -->
  <text x="1880" y="1030" font-family="-apple-system, 'Helvetica Neue', Arial, sans-serif" font-weight="400" font-size="14" fill="#5A5A5A" text-anchor="end">TechEx Hackathon · May 11–19 2026 · lablab.ai</text>

  <!-- Vertical accent right side -->
  <rect x="1912" y="0" width="8" height="1080" fill="#FF6B35"/>
</svg>
