<svg xmlns="http://www.w3.org/2000/svg" width="1920" height="1080" viewBox="0 0 1920 1080">
  <!-- Background -->
  <rect width="1920" height="1080" fill="#FFFFFF"/>
  <!-- Left stripe 12px -->
  <rect x="0" y="0" width="12" height="1080" fill="#FF6B35"/>
  <!-- Top line 4px -->
  <rect x="12" y="0" width="1908" height="4" fill="#FF6B35"/>
  <!-- Bottom line 4px -->
  <rect x="12" y="1076" width="1908" height="4" fill="#0A0A0A"/>

  <!-- Partner logos -->
  <rect x="60" y="20" width="180" height="40" fill="#FF6B35" rx="4"/>
  <text x="150" y="46" font-family="Arial, Helvetica, sans-serif" font-size="16" font-weight="700" fill="#FFFFFF" text-anchor="middle">Veea Lobster Trap</text>

  <rect x="1680" y="20" width="180" height="40" fill="#0A0A0A" rx="4"/>
  <text x="1770" y="46" font-family="Arial, Helvetica, sans-serif" font-size="16" font-weight="700" fill="#FFFFFF" text-anchor="middle">lablab.ai · TechEx</text>

  <!-- Slide number -->
  <text x="1860" y="82" font-family="Arial, Helvetica, sans-serif" font-size="18" fill="#5A5A5A" text-anchor="end" font-weight="400">09 / 09</text>

  <!-- Context label -->
  <text x="960" y="108" font-family="Arial, Helvetica, sans-serif" font-size="14" font-weight="700" fill="#FF6B35" text-anchor="middle" letter-spacing="3">THE QUESTION EVERY ENTERPRISE ASKS · WHY SOUF AI OVER LAKERA / NEMO / PROMPT GUARD</text>

  <!-- Main title -->
  <text x="960" y="180" font-family="Arial Black, Arial, sans-serif" font-size="56" font-weight="900" fill="#0A0A0A" text-anchor="middle">SOUF AI vs Commercial Guardrails</text>
  <text x="960" y="222" font-family="Arial, Helvetica, sans-serif" font-size="22" font-weight="400" fill="#5A5A5A" text-anchor="middle">Feature parity matrix from public competitor docs · No fabricated competitor numbers</text>

  <!-- Comparison table -->
  <!-- Header row -->
  <rect x="80" y="260" width="500" height="56" fill="#0A0A0A"/>
  <rect x="580" y="260" width="320" height="56" fill="#FF6B35"/>
  <rect x="900" y="260" width="260" height="56" fill="#3A3A3A"/>
  <rect x="1160" y="260" width="280" height="56" fill="#3A3A3A"/>
  <rect x="1440" y="260" width="400" height="56" fill="#3A3A3A"/>

  <text x="100" y="296" font-family="Arial, sans-serif" font-size="18" font-weight="700" fill="#FFFFFF">PROPERTY</text>
  <text x="740" y="296" font-family="Arial Black, sans-serif" font-size="20" font-weight="900" fill="#FFFFFF" text-anchor="middle">SOUF AI v0.5f</text>
  <text x="1030" y="296" font-family="Arial, sans-serif" font-size="18" font-weight="700" fill="#FFFFFF" text-anchor="middle">Lakera Guard</text>
  <text x="1300" y="296" font-family="Arial, sans-serif" font-size="18" font-weight="700" fill="#FFFFFF" text-anchor="middle">NeMo Guardrails</text>
  <text x="1640" y="296" font-family="Arial, sans-serif" font-size="18" font-weight="700" fill="#FFFFFF" text-anchor="middle">Prompt Guard 2 (86M)</text>

  <!-- Row 1: Latency P50 -->
  <rect x="80" y="316" width="500" height="56" fill="#F8F8F8"/>
  <rect x="580" y="316" width="320" height="56" fill="#FFF4ED"/>
  <rect x="900" y="316" width="260" height="56" fill="#FFFFFF"/>
  <rect x="1160" y="316" width="280" height="56" fill="#FFFFFF"/>
  <rect x="1440" y="316" width="400" height="56" fill="#FFFFFF"/>
  <text x="100" y="352" font-family="Arial, sans-serif" font-size="18" font-weight="700" fill="#0A0A0A">Latency P50</text>
  <text x="740" y="352" font-family="Arial Black, sans-serif" font-size="22" font-weight="900" fill="#FF6B35" text-anchor="middle">0.051 ms</text>
  <text x="1030" y="352" font-family="Arial, sans-serif" font-size="17" fill="#5A5A5A" text-anchor="middle">not published</text>
  <text x="1300" y="352" font-family="Arial, sans-serif" font-size="17" fill="#5A5A5A" text-anchor="middle">not published</text>
  <text x="1640" y="352" font-family="Arial, sans-serif" font-size="17" fill="#5A5A5A" text-anchor="middle">92.4 ms (A100)</text>

  <!-- Row 2: Throughput -->
  <rect x="80" y="372" width="500" height="56" fill="#FFFFFF"/>
  <rect x="580" y="372" width="320" height="56" fill="#FFF4ED"/>
  <rect x="900" y="372" width="260" height="56" fill="#FFFFFF"/>
  <rect x="1160" y="372" width="280" height="56" fill="#FFFFFF"/>
  <rect x="1440" y="372" width="400" height="56" fill="#FFFFFF"/>
  <text x="100" y="408" font-family="Arial, sans-serif" font-size="18" font-weight="700" fill="#0A0A0A">Throughput (1 core)</text>
  <text x="740" y="408" font-family="Arial Black, sans-serif" font-size="22" font-weight="900" fill="#FF6B35" text-anchor="middle">17,553 req/s</text>
  <text x="1030" y="408" font-family="Arial, sans-serif" font-size="17" fill="#5A5A5A" text-anchor="middle">rate-limited</text>
  <text x="1300" y="408" font-family="Arial, sans-serif" font-size="17" fill="#5A5A5A" text-anchor="middle">LLM-rail-bound</text>
  <text x="1640" y="408" font-family="Arial, sans-serif" font-size="17" fill="#5A5A5A" text-anchor="middle">~100–300 req/s</text>

  <!-- Row 3: Offline -->
  <rect x="80" y="428" width="500" height="56" fill="#F8F8F8"/>
  <rect x="580" y="428" width="320" height="56" fill="#FFF4ED"/>
  <rect x="900" y="428" width="260" height="56" fill="#FFFFFF"/>
  <rect x="1160" y="428" width="280" height="56" fill="#FFFFFF"/>
  <rect x="1440" y="428" width="400" height="56" fill="#FFFFFF"/>
  <text x="100" y="464" font-family="Arial, sans-serif" font-size="18" font-weight="700" fill="#0A0A0A">Offline / air-gapped</text>
  <text x="740" y="464" font-family="Arial Black, sans-serif" font-size="22" font-weight="900" fill="#FF6B35" text-anchor="middle">✓ YES</text>
  <text x="1030" y="464" font-family="Arial Black, sans-serif" font-size="22" font-weight="900" fill="#C0392B" text-anchor="middle">✗ NO (SaaS)</text>
  <text x="1300" y="464" font-family="Arial Black, sans-serif" font-size="22" font-weight="900" fill="#5A5A5A" text-anchor="middle">✓ YES</text>
  <text x="1640" y="464" font-family="Arial Black, sans-serif" font-size="22" font-weight="900" fill="#5A5A5A" text-anchor="middle">✓ YES</text>

  <!-- Row 4: HIPAA pack -->
  <rect x="80" y="484" width="500" height="56" fill="#FFFFFF"/>
  <rect x="580" y="484" width="320" height="56" fill="#FFF4ED"/>
  <rect x="900" y="484" width="260" height="56" fill="#FFFFFF"/>
  <rect x="1160" y="484" width="280" height="56" fill="#FFFFFF"/>
  <rect x="1440" y="484" width="400" height="56" fill="#FFFFFF"/>
  <text x="100" y="520" font-family="Arial, sans-serif" font-size="18" font-weight="700" fill="#0A0A0A">Built-in HIPAA pack</text>
  <text x="740" y="520" font-family="Arial Black, sans-serif" font-size="20" font-weight="900" fill="#FF6B35" text-anchor="middle">✓ F1=1.000</text>
  <text x="1030" y="520" font-family="Arial, sans-serif" font-size="17" fill="#5A5A5A" text-anchor="middle">guides only</text>
  <text x="1300" y="520" font-family="Arial, sans-serif" font-size="17" fill="#5A5A5A" text-anchor="middle">custom Colang</text>
  <text x="1640" y="520" font-family="Arial Black, sans-serif" font-size="22" font-weight="900" fill="#C0392B" text-anchor="middle">✗</text>

  <!-- Row 5: PCI-DSS pack -->
  <rect x="80" y="540" width="500" height="56" fill="#F8F8F8"/>
  <rect x="580" y="540" width="320" height="56" fill="#FFF4ED"/>
  <rect x="900" y="540" width="260" height="56" fill="#FFFFFF"/>
  <rect x="1160" y="540" width="280" height="56" fill="#FFFFFF"/>
  <rect x="1440" y="540" width="400" height="56" fill="#FFFFFF"/>
  <text x="100" y="576" font-family="Arial, sans-serif" font-size="18" font-weight="700" fill="#0A0A0A">Built-in PCI-DSS pack</text>
  <text x="740" y="576" font-family="Arial Black, sans-serif" font-size="20" font-weight="900" fill="#FF6B35" text-anchor="middle">✓ F1=1.000</text>
  <text x="1030" y="576" font-family="Arial, sans-serif" font-size="17" fill="#5A5A5A" text-anchor="middle">partial</text>
  <text x="1300" y="576" font-family="Arial, sans-serif" font-size="17" fill="#5A5A5A" text-anchor="middle">custom Colang</text>
  <text x="1640" y="576" font-family="Arial Black, sans-serif" font-size="22" font-weight="900" fill="#C0392B" text-anchor="middle">✗</text>

  <!-- Row 6: Audit chain -->
  <rect x="80" y="596" width="500" height="56" fill="#FFFFFF"/>
  <rect x="580" y="596" width="320" height="56" fill="#FFF4ED"/>
  <rect x="900" y="596" width="260" height="56" fill="#FFFFFF"/>
  <rect x="1160" y="596" width="280" height="56" fill="#FFFFFF"/>
  <rect x="1440" y="596" width="400" height="56" fill="#FFFFFF"/>
  <text x="100" y="632" font-family="Arial, sans-serif" font-size="18" font-weight="700" fill="#0A0A0A">Audit chain (tamper-evident)</text>
  <text x="740" y="632" font-family="Arial Black, sans-serif" font-size="18" font-weight="900" fill="#FF6B35" text-anchor="middle">✓ Ed25519 + SHA-256</text>
  <text x="1030" y="632" font-family="Arial, sans-serif" font-size="17" fill="#5A5A5A" text-anchor="middle">request logs</text>
  <text x="1300" y="632" font-family="Arial, sans-serif" font-size="17" fill="#5A5A5A" text-anchor="middle">trace logs</text>
  <text x="1640" y="632" font-family="Arial Black, sans-serif" font-size="22" font-weight="900" fill="#C0392B" text-anchor="middle">✗</text>

  <!-- Row 7: Wilson CI -->
  <rect x="80" y="652" width="500" height="56" fill="#F8F8F8"/>
  <rect x="580" y="652" width="320" height="56" fill="#FFF4ED"/>
  <rect x="900" y="652" width="260" height="56" fill="#FFFFFF"/>
  <rect x="1160" y="652" width="280" height="56" fill="#FFFFFF"/>
  <rect x="1440" y="652" width="400" height="56" fill="#FFFFFF"/>
  <text x="100" y="688" font-family="Arial, sans-serif" font-size="18" font-weight="700" fill="#0A0A0A">Wilson 95% CI reported</text>
  <text x="740" y="688" font-family="Arial Black, sans-serif" font-size="22" font-weight="900" fill="#FF6B35" text-anchor="middle">✓ YES</text>
  <text x="1030" y="688" font-family="Arial Black, sans-serif" font-size="22" font-weight="900" fill="#C0392B" text-anchor="middle">✗</text>
  <text x="1300" y="688" font-family="Arial Black, sans-serif" font-size="22" font-weight="900" fill="#C0392B" text-anchor="middle">✗</text>
  <text x="1640" y="688" font-family="Arial Black, sans-serif" font-size="22" font-weight="900" fill="#C0392B" text-anchor="middle">✗</text>

  <!-- Row 8: License -->
  <rect x="80" y="708" width="500" height="56" fill="#FFFFFF"/>
  <rect x="580" y="708" width="320" height="56" fill="#FFF4ED"/>
  <rect x="900" y="708" width="260" height="56" fill="#FFFFFF"/>
  <rect x="1160" y="708" width="280" height="56" fill="#FFFFFF"/>
  <rect x="1440" y="708" width="400" height="56" fill="#FFFFFF"/>
  <text x="100" y="744" font-family="Arial, sans-serif" font-size="18" font-weight="700" fill="#0A0A0A">License</text>
  <text x="740" y="744" font-family="Arial Black, sans-serif" font-size="22" font-weight="900" fill="#FF6B35" text-anchor="middle">MIT</text>
  <text x="1030" y="744" font-family="Arial, sans-serif" font-size="17" fill="#C0392B" text-anchor="middle">Commercial closed</text>
  <text x="1300" y="744" font-family="Arial, sans-serif" font-size="17" fill="#5A5A5A" text-anchor="middle">Apache 2.0</text>
  <text x="1640" y="744" font-family="Arial, sans-serif" font-size="17" fill="#5A5A5A" text-anchor="middle">mDeBERTa MIT</text>

  <!-- Row 9: Cost -->
  <rect x="80" y="764" width="500" height="56" fill="#F8F8F8"/>
  <rect x="580" y="764" width="320" height="56" fill="#FFF4ED"/>
  <rect x="900" y="764" width="260" height="56" fill="#FFFFFF"/>
  <rect x="1160" y="764" width="280" height="56" fill="#FFFFFF"/>
  <rect x="1440" y="764" width="400" height="56" fill="#FFFFFF"/>
  <text x="100" y="800" font-family="Arial, sans-serif" font-size="18" font-weight="700" fill="#0A0A0A">Cost / 1M requests</text>
  <text x="740" y="800" font-family="Arial Black, sans-serif" font-size="22" font-weight="900" fill="#FF6B35" text-anchor="middle">$0 self-hosted</text>
  <text x="1030" y="800" font-family="Arial, sans-serif" font-size="17" fill="#C0392B" text-anchor="middle">volume-tier API</text>
  <text x="1300" y="800" font-family="Arial, sans-serif" font-size="17" fill="#5A5A5A" text-anchor="middle">$0 + compute</text>
  <text x="1640" y="800" font-family="Arial, sans-serif" font-size="17" fill="#5A5A5A" text-anchor="middle">$0 + compute</text>

  <!-- Bottom takeaway -->
  <rect x="80" y="848" width="1760" height="120" rx="8" fill="#0A0A0A"/>
  <text x="960" y="888" font-family="Arial Black, Arial, sans-serif" font-size="32" font-weight="900" fill="#FF6B35" text-anchor="middle">SOUF AI is the only guardrail with all 6 wins.</text>
  <text x="960" y="922" font-family="Arial, sans-serif" font-size="20" font-weight="400" fill="#FFFFFF" text-anchor="middle">Sub-ms latency · Offline-capable · Built-in HIPAA + PCI-DSS · Tamper-evident audit · Wilson CIs · MIT license · $0 cost</text>
  <text x="960" y="952" font-family="Arial, sans-serif" font-size="16" font-weight="400" fill="#C0C0C0" text-anchor="middle">Sources: Lakera Guard docs · NVIDIA NeMo Guardrails GitHub · Meta Prompt Guard model card · See docs/competitive_comparison.md</text>

  <!-- Bottom footer -->
  <text x="100" y="1020" font-family="Arial, sans-serif" font-size="14" fill="#5A5A5A">github.com/SRKRZ23/souf-ai · python3 scripts/run_all_benchmarks.py</text>
  <text x="1840" y="1020" font-family="Arial, sans-serif" font-size="14" fill="#5A5A5A" text-anchor="end">Sardor Razikov · Tashkent · solo · MIT</text>
</svg>
